<svg xmlns="http://www.w3.org/2000/svg" version="1.1" xmlns:xlink="http://www.w3.org/1999/xlink" xmlns:svgjs="http://svgjs.dev/svgjs" width="1500" height="253" viewBox="0 0 1500 253"><g transform="matrix(1,0,0,1,-0.9090909090911055,-0.3196659634875658)"><svg viewBox="0 0 396 67" data-background-color="#ffffff" preserveAspectRatio="xMidYMid meet" height="253" width="1500" xmlns="http://www.w3.org/2000/svg" xmlns:xlink="http://www.w3.org/1999/xlink"><g id="tight-bounds" transform="matrix(1,0,0,1,0.24000000000003752,0.08465462274176616)"><svg viewBox="0 0 395.5199999999999 66.83069075451645" height="66.83069075451645" width="395.5199999999999"><g><svg viewBox="0 0 395.52000000000004 66.83069075451647" height="66.83069075451645" width="395.5199999999999"><g><svg viewBox="0 0 395.52000000000004 66.83069075451647" height="66.83069075451647" width="395.52000000000004"><g id="textblocktransform"><svg viewBox="0 0 395.52000000000004 66.83069075451647" height="66.83069075451647" width="395.52000000000004" id="textblock"><g><svg viewBox="0 0 395.52000000000004 66.83069075451647" height="66.83069075451647" width="395.52000000000004"><g transform="matrix(1,0,0,1,0,0)"><svg width="395.52000000000004" viewBox="1.95 -30.57 183.77 31.06" height="66.83069075451647" data-palette-color="#ffb411"><path d="M1.95 0L15.92 0 15.92-1.27 10.06-1.27 10.06-14.4 20.12-14.4 20.12-15.82 10.06-15.82 10.06-28.03 17.87-28.03Q21.39-28.03 22.9-23.29L22.9-23.29Q23-23 23.05-22.8L23.05-22.8 23.73-20.51 24.71-20.51 24.46-29.3 1.95-29.3 1.95-28.03 5.86-28.03 5.86-1.27 1.95-1.27 1.95 0ZM36.67-1.22L36.67-1.22 34.23-1.22 34.23-20.75 26.66-20.75 26.66-19.53 30.56-19.53 30.56-4.15Q30.56-1.9 29.05-1.42L29.05-1.42Q28.32-1.22 26.66-1.22L26.66-1.22 26.66 0 37.89 0Q37.89-1.07 37.16-1.17L37.16-1.17Q36.91-1.22 36.67-1.22ZM34.81-27.88L34.81-27.88Q34.81-29.59 33.3-30.32L33.3-30.32Q32.71-30.57 32.18-30.57L32.18-30.57Q30.47-30.57 29.73-29L29.73-29Q29.49-28.47 29.49-27.88L29.49-27.88Q29.49-26.07 31.1-25.39L31.1-25.39Q31.64-25.2 32.18-25.2L32.18-25.2Q33.88-25.2 34.57-26.76L34.57-26.76Q34.81-27.29 34.81-27.88ZM50.34-1.22L50.34-1.22 48.14-1.22 48.14-11.77Q48.29-16.31 51.36-18.31L51.36-18.31Q52.68-19.14 54.05-19.14L54.05-19.14Q57.03-19.14 58.1-16.36L58.1-16.36Q58.54-15.23 58.54-13.82L58.54-13.82 58.54-4.15Q58.54-1.9 57.27-1.46L57.27-1.46Q56.54-1.22 54.88-1.22L54.88-1.22 54.88 0 65.86 0Q65.86-1.07 65.13-1.17L65.13-1.17Q64.94-1.22 64.64-1.22L64.64-1.22 62.2-1.22 62.2-13.33Q62.2-18.21 58.83-20.31L58.83-20.31Q57.27-21.24 55.46-21.24L55.46-21.24Q51.85-21.24 49.51-18.36L49.51-18.36Q48.63-17.24 48.09-15.87L48.09-15.87 47.9-20.75 40.82-20.75 40.82-19.53 44.48-19.53 44.48-4.15Q44.48-1.9 43.21-1.46L43.21-1.46Q42.48-1.22 40.82-1.22L40.82-1.22 40.82 0 51.56 0Q51.56-1.07 50.83-1.17L50.83-1.17Q50.63-1.22 50.34-1.22ZM79.24-20.02L79.24-20.02Q82.66-20.02 83.78-17.14L83.78-17.14Q84.17-16.21 84.17-15.14L84.17-15.14Q84.17-12.7 81.83-12.16L81.83-12.16Q80.61-11.91 78.36-11.96L78.36-11.96 73.19-12.11Q73.43-17.72 76.85-19.43L76.85-19.43Q77.97-20.02 79.24-20.02ZM87.74-4.69L87.74-4.69 86.52-5.13Q84.81-1.42 81-0.93L81-0.93Q80.51-0.88 80.07-0.88L80.07-0.88Q74.94-0.88 73.63-6.98L73.63-6.98Q73.23-8.69 73.19-10.74L73.19-10.74 79.05-10.64Q85-10.55 86.71-11.77L86.71-11.77Q88.03-12.74 88.03-14.55L88.03-14.55Q88.03-17.87 84.66-19.82L84.66-19.82Q82.27-21.24 79.14-21.24L79.14-21.24Q73.04-21.24 70.4-16.16L70.4-16.16Q69.04-13.53 69.04-10.21L69.04-10.21Q69.04-4.15 73.38-1.22L73.38-1.22Q75.97 0.49 79.29 0.49L79.29 0.49Q84.56 0.49 87.05-3.32L87.05-3.32Q87.44-4 87.74-4.69ZM105.31-29.3L91.69-29.3 91.69-28.03 95.6-28.03 95.6-1.27 91.69-1.27 91.69 0 105.17 0Q111.76 0 116.01-4.1L116.01-4.1Q120.2-8.15 120.2-14.65L120.2-14.65Q120.2-23.05 114.05-26.95L114.05-26.95Q110.29-29.3 105.31-29.3L105.31-29.3ZM99.79-28.03L105.17-28.03Q112.88-28.03 114.78-21L114.78-21Q115.52-18.41 115.52-14.84L115.52-14.84Q115.52-2.69 107.22-1.42L107.22-1.42Q106.29-1.27 105.31-1.27L105.31-1.27 99.79-1.27 99.79-28.03ZM134.36-1.22L134.36-1.22 131.92-1.22 131.92-20.75 124.35-20.75 124.35-19.53 128.26-19.53 128.26-4.15Q128.26-1.9 126.75-1.42L126.75-1.42Q126.01-1.22 124.35-1.22L124.35-1.22 124.35 0 135.58 0Q135.58-1.07 134.85-1.17L134.85-1.17Q134.61-1.22 134.36-1.22ZM132.51-27.88L132.51-27.88Q132.51-29.59 130.99-30.32L130.99-30.32Q130.41-30.57 129.87-30.57L129.87-30.57Q128.16-30.57 127.43-29L127.43-29Q127.18-28.47 127.18-27.88L127.18-27.88Q127.18-26.07 128.8-25.39L128.8-25.39Q129.33-25.2 129.87-25.2L129.87-25.2Q131.58-25.2 132.26-26.76L132.26-26.76Q132.51-27.29 132.51-27.88ZM148.03-1.22L148.03-1.22 145.83-1.22 145.83-11.77Q145.98-16.31 149.06-18.31L149.06-18.31Q150.38-19.14 151.74-19.14L151.74-19.14Q154.72-19.14 155.8-16.36L155.8-16.36Q156.24-15.23 156.24-13.82L156.24-13.82 156.24-4.15Q156.24-1.9 154.97-1.46L154.97-1.46Q154.23-1.22 152.57-1.22L152.57-1.22 152.57 0 163.56 0Q163.56-1.07 162.83-1.17L162.83-1.17Q162.63-1.22 162.34-1.22L162.34-1.22 159.9-1.22 159.9-13.33Q159.9-18.21 156.53-20.31L156.53-20.31Q154.97-21.24 153.16-21.24L153.16-21.24Q149.55-21.24 147.2-18.36L147.2-18.36Q146.32-17.24 145.79-15.87L145.79-15.87 145.59-20.75 138.51-20.75 138.51-19.53 142.17-19.53 142.17-4.15Q142.17-1.9 140.9-1.46L140.9-1.46Q140.17-1.22 138.51-1.22L138.51-1.22 138.51 0 149.25 0Q149.25-1.07 148.52-1.17L148.52-1.17Q148.32-1.22 148.03-1.22ZM176.94-20.02L176.94-20.02Q180.35-20.02 181.48-17.14L181.48-17.14Q181.87-16.21 181.87-15.14L181.87-15.14Q181.87-12.7 179.52-12.16L179.52-12.16Q178.3-11.91 176.06-11.96L176.06-11.96 170.88-12.11Q171.13-17.72 174.54-19.43L174.54-19.43Q175.67-20.02 176.94-20.02ZM185.43-4.69L185.43-4.69 184.21-5.13Q182.5-1.42 178.69-0.93L178.69-0.93Q178.21-0.88 177.77-0.88L177.77-0.88Q172.64-0.88 171.32-6.98L171.32-6.98Q170.93-8.69 170.88-10.74L170.88-10.74 176.74-10.64Q182.7-10.55 184.41-11.77L184.41-11.77Q185.72-12.74 185.72-14.55L185.72-14.55Q185.72-17.87 182.36-19.82L182.36-19.82Q179.96-21.24 176.84-21.24L176.84-21.24Q170.73-21.24 168.1-16.16L168.1-16.16Q166.73-13.53 166.73-10.21L166.73-10.21Q166.73-4.15 171.08-1.22L171.08-1.22Q173.66 0.49 176.98 0.49L176.98 0.49Q182.26 0.49 184.75-3.32L184.75-3.32Q185.14-4 185.43-4.69Z" opacity="1" transform="matrix(1,0,0,1,0,0)" fill="#ffb411" class="wordmark-text-0" data-fill-palette-color="primary" id="text-0"></path></svg></g></svg></g></svg></g></svg></g><g></g></svg></g><defs></defs></svg><rect width="395.5199999999999" height="66.83069075451645" fill="none" stroke="none" visibility="hidden"></rect></g></svg></g></svg>